<svg width="342" height="214" viewBox="0 0 342 214" fill="none" xmlns="http://www.w3.org/2000/svg">
<path fill-rule="evenodd" clip-rule="evenodd" d="M80.5 213.5C96.3275 213.5 111.082 207.381 123.5 196.823C135.918 207.381 150.672 213.5 166.5 213.5C184.286 213.5 200.716 205.773 214 192.704C227.284 205.773 243.714 213.5 261.5 213.5C305.683 213.5 341.5 165.818 341.5 107C341.5 48.1817 305.683 0.5 261.5 0.5C243.714 0.5 227.284 8.22673 214 21.2963C200.716 8.22673 184.286 0.5 166.5 0.5C150.672 0.5 135.918 6.61887 123.5 17.1766C111.082 6.61887 96.3275 0.5 80.5 0.5C36.3172 0.5 0.5 48.1817 0.5 107C0.5 165.818 36.3172 213.5 80.5 213.5Z" fill="url(#paint0_radial_4981_12500)"/>
<path fill-rule="evenodd" clip-rule="evenodd" d="M80.5 213.5C96.3275 213.5 111.082 207.381 123.5 196.823C135.918 207.381 150.672 213.5 166.5 213.5C184.286 213.5 200.716 205.773 214 192.704C227.284 205.773 243.714 213.5 261.5 213.5C305.683 213.5 341.5 165.818 341.5 107C341.5 48.1817 305.683 0.5 261.5 0.5C243.714 0.5 227.284 8.22673 214 21.2963C200.716 8.22673 184.286 0.5 166.5 0.5C150.672 0.5 135.918 6.61887 123.5 17.1766C111.082 6.61887 96.3275 0.5 80.5 0.5C36.3172 0.5 0.5 48.1817 0.5 107C0.5 165.818 36.3172 213.5 80.5 213.5Z" fill="url(#paint1_radial_4981_12500)"/>
<path d="M66.569 110.95L65.2773 115.75L70.134 117.05L69.204 113.5L66.569 110.95ZM90.8007 113.5L89.8707 117.05L94.7274 115.75L93.4357 110.95L90.8007 113.5ZM69.204 101.5L66.569 104.05L67.5507 107.5L69.204 101.5Z" fill="white"/>
<path d="M67.5481 107.5L66.5664 110.95L69.2014 113.5L67.5481 107.5Z" fill="white"/>
<path d="M66.566 104.05L63.001 107.5L66.566 110.95L67.5476 107.5L66.566 104.05ZM73.7993 117.95L76.4343 120.5L79.9993 119.55L73.7993 117.95ZM83.5643 120.5L88.5243 121.75L89.8677 117.05L86.1993 117.95L83.5643 120.5Z" fill="white"/>
<path d="M86.1982 117.95L89.8666 117.05L90.7966 113.5L86.1982 117.95ZM70.1299 117.05L71.4732 121.75L76.4332 120.5L73.7982 117.95L70.1299 117.05ZM79.9982 119.55L83.5632 120.5L86.1982 117.95L79.9982 119.55Z" fill="white"/>
<path d="M76.4374 120.5L80.0024 123.95L83.5674 120.5L80.0024 119.55L76.4374 120.5ZM70.134 97.95L65.2773 99.25L66.569 104.05L69.204 101.5L70.134 97.95ZM69.204 113.5L70.134 117.05L73.8024 117.95L69.204 113.5ZM92.4541 107.5L93.4357 104.05L90.8007 101.5L92.4541 107.5Z" fill="white"/>
<path d="M73.7995 97.0503L70.1312 97.9503L69.2012 101.5L73.7995 97.0503ZM90.7979 101.5L89.8679 97.9503L86.1995 97.0503L90.7979 101.5ZM93.4329 110.95L96.9979 107.5L93.4329 104.05L92.4512 107.5L93.4329 110.95Z" fill="white"/>
<path d="M90.7989 101.5L86.2005 97.05L80.0005 95.45L73.8005 97.05L69.2022 101.5L67.5488 107.5L69.2022 113.5L73.8005 117.95L80.0005 119.55L86.2005 117.95L90.7989 113.5L92.4522 107.5L90.7989 101.5Z" fill="white"/>
<path d="M90.7966 113.5L93.4316 110.95L92.4499 107.5L90.7966 113.5ZM93.4316 104.05L94.7233 99.25L89.8666 97.95L90.7966 101.5L93.4316 104.05ZM89.8666 97.95L88.5232 93.25L83.5632 94.5L86.1982 97.05L89.8666 97.95ZM76.4332 94.5L71.4732 93.25L70.1299 97.95L73.7982 97.05L76.4332 94.5ZM79.9982 95.45L76.4332 94.5L73.7982 97.05L79.9982 95.45Z" fill="white"/>
<path d="M83.5665 94.5003L80.0015 91.0503L76.4365 94.5003L80.0015 95.4503L83.5665 94.5003Z" fill="white"/>
<path d="M86.1993 97.05L83.5643 94.5L79.9993 95.45L86.1993 97.05ZM76.4343 120.5L71.4743 121.75L73.7993 130.05L79.9993 123.95L76.4343 120.5ZM73.7993 130.05L79.9993 152.5L86.1993 130.05L79.9993 123.95L73.7993 130.05ZM70.131 117.05L65.2743 115.75L63.001 123.95L71.4743 121.75L70.131 117.05Z" fill="white"/>
<path d="M63.0019 123.95L56.8019 146.5L73.8002 130.05L71.4752 121.75L63.0019 123.95ZM56.8019 113.5L39.7002 130.05L63.0019 123.95L65.2752 115.75L56.8019 113.5Z" fill="white"/>
<path d="M66.5668 110.95L63.0018 107.5L56.8018 113.5L65.2751 115.75L66.5668 110.95ZM66.5668 104.05L65.2751 99.25L56.8018 101.5L63.0018 107.5L66.5668 104.05Z" fill="white"/>
<path d="M56.8017 101.5L33.5 107.5L56.8017 113.5L63.0017 107.5L56.8017 101.5ZM103.302 113.5L94.7251 115.75L96.9984 123.95L120.3 130.05L103.302 113.5Z" fill="white"/>
<path d="M89.8684 117.05L88.525 121.75L96.9984 123.95L94.725 115.75L89.8684 117.05ZM83.565 120.5L80 123.95L86.2 130.05L88.525 121.75L83.565 120.5ZM93.4334 110.95L94.725 115.75L103.302 113.5L96.9984 107.5L93.4334 110.95Z" fill="white"/>
<path d="M86.2002 130.05L103.302 146.5L96.9985 123.95L88.5252 121.75L86.2002 130.05ZM89.8685 97.9503L94.7252 99.2503L96.9985 91.0503L88.5252 93.2503L89.8685 97.9503Z" fill="white"/>
<path d="M103.302 101.5L120.3 85.05L96.9985 91.05L94.7252 99.25L103.302 101.5ZM96.9985 91.05L103.302 68.5L86.2002 85.05L88.5252 93.25L96.9985 91.05ZM103.302 113.5L126.5 107.5L103.302 101.5L96.9985 107.5L103.302 113.5Z" fill="white"/>
<path d="M93.4335 104.05L96.9985 107.5L103.302 101.5L94.7251 99.25L93.4335 104.05ZM73.8001 85.05L56.8018 68.5L63.0018 91.05L71.4751 93.25L73.8001 85.05Z" fill="white"/>
<path d="M70.131 97.9503L71.4743 93.2503L63.001 91.0503L65.2743 99.2503L70.131 97.9503Z" fill="white"/>
<path d="M63.0019 91.0503L39.7002 85.0503L56.8019 101.5L65.2752 99.2503L63.0019 91.0503ZM83.5653 94.5003L88.5253 93.2503L86.2003 85.0503L80.0003 91.0503L83.5653 94.5003Z" fill="white"/>
<path d="M86.1998 85.05L79.9998 62.5L73.7998 85.05L79.9998 91.05L86.1998 85.05Z" fill="white"/>
<path d="M76.4336 94.5003L79.9986 91.0503L73.7986 85.0503L71.4736 93.2503L76.4336 94.5003Z" fill="white"/>
<path d="M79.9984 133.05C94.5796 133.05 106.4 121.611 106.4 107.5C106.4 93.389 94.5796 81.9498 79.9984 81.9498C65.4171 81.9498 53.5967 93.389 53.5967 107.5C53.5967 121.611 65.4171 133.05 79.9984 133.05Z" fill="#FE00BA"/>
<path d="M80.0009 130.05C92.8701 130.05 103.303 119.954 103.303 107.5C103.303 95.0458 92.8701 84.9498 80.0009 84.9498C67.1317 84.9498 56.6992 95.0458 56.6992 107.5C56.6992 119.954 67.1317 130.05 80.0009 130.05Z" fill="white"/>
<path d="M219.063 107.112C219.063 121.1 214.786 133.66 208.001 142.661C201.218 151.66 192.053 156.976 182.156 156.976C172.258 156.976 163.093 151.66 156.31 142.661C149.525 133.66 145.248 121.1 145.248 107.112C145.248 93.1242 149.525 80.5651 156.31 71.5641C163.093 62.5644 172.258 57.2484 182.156 57.2484C192.053 57.2484 201.218 62.5644 208.001 71.5641C214.786 80.5651 219.063 93.1242 219.063 107.112Z" stroke="white" stroke-width="5.49681"/>
<mask id="mask0_4981_12500" style="mask-type:alpha" maskUnits="userSpaceOnUse" x="142" y="54" width="80" height="106">
<ellipse cx="182.156" cy="107.112" rx="39.6556" ry="52.6123" fill="white"/>
</mask>
<g mask="url(#mask0_4981_12500)">
<ellipse cx="204.928" cy="107.112" rx="33.3996" ry="44.3123" fill="white"/>
</g>
<path d="M305.751 107.112C305.751 121.1 301.474 133.66 294.69 142.661C287.907 151.66 278.741 156.976 268.844 156.976C258.947 156.976 249.781 151.66 242.998 142.661C236.214 133.66 231.937 121.1 231.937 107.112C231.937 93.1242 236.214 80.5651 242.998 71.5641C249.781 62.5644 258.947 57.2484 268.844 57.2484C278.741 57.2484 287.907 62.5644 294.69 71.5641C301.474 80.5651 305.751 93.1242 305.751 107.112Z" stroke="white" stroke-width="5.49681"/>
<mask id="mask1_4981_12500" style="mask-type:alpha" maskUnits="userSpaceOnUse" x="229" y="54" width="80" height="106">
<ellipse cx="268.844" cy="107.112" rx="39.6556" ry="52.6123" fill="white"/>
</mask>
<g mask="url(#mask1_4981_12500)">
<ellipse cx="291.616" cy="107.112" rx="33.3996" ry="44.3123" fill="white"/>
</g>
<defs>
<radialGradient id="paint0_radial_4981_12500" cx="0" cy="0" r="1" gradientUnits="userSpaceOnUse" gradientTransform="translate(-14 0.500003) rotate(44.561) scale(184.56 295.47)">
<stop stop-color="#FBFFD1"/>
<stop offset="1" stop-color="#D5009C"/>
</radialGradient>
<radialGradient id="paint1_radial_4981_12500" cx="0" cy="0" r="1" gradientUnits="userSpaceOnUse" gradientTransform="translate(246 107.5) rotate(18.0761) scale(151.476 242.504)">
<stop stop-color="#FF41CD"/>
<stop offset="1" stop-color="#D4009C" stop-opacity="0"/>
</radialGradient>
</defs>
</svg>
